HIERARCHY
ROOT Hips
{
	OFFSET 0.000000 103.266502 0.000000
	CHANNELS 6 Xposition Yposition Zposition Xrotation Yrotation Zrotation 
	JOINT Spine
	{
		OFFSET -0.002400 12.777504 0.315300
		CHANNELS 3 Xrotation Yrotation Zrotation
		JOINT Spine1
		{
			OFFSET -0.002067 5.816869 0.032633
			CHANNELS 3 Xrotation Yrotation Zrotation
			JOINT Spine1_split
			{
				OFFSET -0.002067 5.816869 0.032633
				CHANNELS 3 Xrotation Yrotation Zrotation
				JOINT Spine2
				{
					OFFSET -0.002067 5.816869 0.032633
					CHANNELS 3 Xrotation Yrotation Zrotation
					JOINT Neck
					{
						OFFSET -0.003700 21.199493 -0.826900
						CHANNELS 3 Xrotation Yrotation Zrotation
						JOINT Head
						{
							OFFSET 0.000000 20.442200 4.834800
							CHANNELS 3 Xrotation Yrotation Zrotation
							JOINT HeadTop_End
							{
								OFFSET 0.000000 34.668396 4.968400
								CHANNELS 3 Xrotation Yrotation Zrotation
								End Site
								{
									OFFSET 0.000000 0.000000 0.000000
								}
							}
						}
					}
					JOINT LeftShoulder
					{
						OFFSET 3.288150 8.794197 -1.372250
						CHANNELS 3 Xrotation Yrotation Zrotation
						JOINT LeftShoulder_split
						{
							OFFSET 3.288150 8.794197 -1.372250
							CHANNELS 3 Xrotation Yrotation Zrotation
							JOINT LeftArm
							{
								OFFSET 11.953299 -2.279007 -0.146200
								CHANNELS 3 Xrotation Yrotation Zrotation
								JOINT LeftForeArm
								{
									OFFSET 18.448900 0.000000 0.000000
									CHANNELS 3 Xrotation Yrotation Zrotation
									JOINT LeftHand
									{
										OFFSET 29.527798 0.000000 0.000000
										CHANNELS 3 Xrotation Yrotation Zrotation
										JOINT LeftHandThumb1
										{
											OFFSET 10.739754 -2.369614 9.225399
											CHANNELS 3 Xrotation Yrotation Zrotation
											JOINT LeftHandThumb2
											{
												OFFSET 4.926170 -2.844131 2.844125
												CHANNELS 3 Xrotation Yrotation Zrotation
												JOINT LeftHandThumb3
												{
													OFFSET 4.614891 -2.664413 2.664409
													CHANNELS 3 Xrotation Yrotation Zrotation
													JOINT LeftHandThumb4
													{
														OFFSET 4.432465 -2.559082 2.559083
														CHANNELS 3 Xrotation Yrotation Zrotation
														End Site
														{
															OFFSET 0.000000 0.000000 0.000000
														}
													}
												}
											}
										}
										JOINT LeftHandIndex1
										{
											OFFSET 26.467674 0.187653 6.405298
											CHANNELS 3 Xrotation Yrotation Zrotation
											JOINT LeftHandIndex2
											{
												OFFSET 8.792900 0.000000 0.000000
												CHANNELS 3 Xrotation Yrotation Zrotation
												JOINT LeftHandIndex3
												{
													OFFSET 10.075203 0.000000 0.000000
													CHANNELS 3 Xrotation Yrotation Zrotation
													End Site
													{
														OFFSET 0.000000 0.000000 0.000000
													}
												}
											}
										}
										JOINT LeftHandMiddle1
										{
											OFFSET 25.764404 0.000000 0.000000
											CHANNELS 3 Xrotation Yrotation Zrotation
											JOINT LeftHandMiddle2
											{
												OFFSET 9.393974 0.000000 0.000000
												CHANNELS 3 Xrotation Yrotation Zrotation
												JOINT LeftHandMiddle3
												{
													OFFSET 10.771950 0.000000 0.000000
													CHANNELS 3 Xrotation Yrotation Zrotation
													End Site
													{
														OFFSET 0.000000 0.000000 0.000000
													}
												}
											}
										}
										JOINT LeftHandRing1
										{
											OFFSET 24.660927 0.144547 -6.225808
											CHANNELS 3 Xrotation Yrotation Zrotation
											JOINT LeftHandRing2
											{
												OFFSET 9.393799 0.000000 0.000000
												CHANNELS 3 Xrotation Yrotation Zrotation
												JOINT LeftHandRing3
												{
													OFFSET 9.928497 0.000000 0.000000
													CHANNELS 3 Xrotation Yrotation Zrotation
													End Site
													{
														OFFSET 0.000000 0.000000 0.000000
													}
												}
											}
										}
										JOINT LeftHandPinky1
										{
											OFFSET 23.655350 0.125290 -12.815412
											CHANNELS 3 Xrotation Yrotation Zrotation
											JOINT LeftHandPinky2
											{
												OFFSET 8.425102 0.000000 0.000000
												CHANNELS 3 Xrotation Yrotation Zrotation
												JOINT LeftHandPinky3
												{
													OFFSET 8.147003 0.000000 0.000000
													CHANNELS 3 Xrotation Yrotation Zrotation
													End Site
													{
														OFFSET 0.000000 0.000000 0.000000
													}
												}
											}
										}
									}
								}
							}
						}
					}
					JOINT RightShoulder
					{
						OFFSET -3.249400 8.794197 -1.372250
						CHANNELS 3 Xrotation Yrotation Zrotation
						JOINT RightShoulder_split
						{
							OFFSET -3.249400 8.794197 -1.372250
							CHANNELS 3 Xrotation Yrotation Zrotation
							JOINT RightArm
							{
								OFFSET -11.953299 -2.279007 -0.146200
								CHANNELS 3 Xrotation Yrotation Zrotation
								JOINT RightForeArm
								{
									OFFSET -18.448900 0.000000 0.000000
									CHANNELS 3 Xrotation Yrotation Zrotation
									JOINT RightHand
									{
										OFFSET -29.527802 0.000000 0.000000
										CHANNELS 3 Xrotation Yrotation Zrotation
										JOINT RightHandThumb1
										{
											OFFSET -10.739754 -2.369614 9.225399
											CHANNELS 3 Xrotation Yrotation Zrotation
											JOINT RightHandThumb2
											{
												OFFSET -4.926170 -2.844131 2.844125
												CHANNELS 3 Xrotation Yrotation Zrotation
												JOINT RightHandThumb3
												{
													OFFSET -4.614891 -2.664413 2.664409
													CHANNELS 3 Xrotation Yrotation Zrotation
													JOINT RightHandThumb4
													{
														OFFSET -4.432465 -2.559082 2.559083
														CHANNELS 3 Xrotation Yrotation Zrotation
														End Site
														{
															OFFSET 0.000000 0.000000 0.000000
														}
													}
												}
											}
										}
										JOINT RightHandIndex1
										{
											OFFSET -26.467674 0.187653 6.405298
											CHANNELS 3 Xrotation Yrotation Zrotation
											JOINT RightHandIndex2
											{
												OFFSET -8.792900 0.000000 0.000000
												CHANNELS 3 Xrotation Yrotation Zrotation
												JOINT RightHandIndex3
												{
													OFFSET -10.075203 0.000000 0.000000
													CHANNELS 3 Xrotation Yrotation Zrotation
													End Site
													{
														OFFSET 0.000000 0.000000 0.000000
													}
												}
											}
										}
										JOINT RightHandMiddle1
										{
											OFFSET -25.764404 0.000000 0.000000
											CHANNELS 3 Xrotation Yrotation Zrotation
											JOINT RightHandMiddle2
											{
												OFFSET -9.393974 0.000000 0.000000
												CHANNELS 3 Xrotation Yrotation Zrotation
												JOINT RightHandMiddle3
												{
													OFFSET -10.771950 0.000000 0.000000
													CHANNELS 3 Xrotation Yrotation Zrotation
													End Site
													{
														OFFSET 0.000000 0.000000 0.000000
													}
												}
											}
										}
										JOINT RightHandRing1
										{
											OFFSET -24.660927 0.144547 -6.225808
											CHANNELS 3 Xrotation Yrotation Zrotation
											JOINT RightHandRing2
											{
												OFFSET -9.393799 0.000000 0.000000
												CHANNELS 3 Xrotation Yrotation Zrotation
												JOINT RightHandRing3
												{
													OFFSET -9.928497 0.000000 0.000000
													CHANNELS 3 Xrotation Yrotation Zrotation
													End Site
													{
														OFFSET 0.000000 0.000000 0.000000
													}
												}
											}
										}
										JOINT RightHandPinky1
										{
											OFFSET -23.655350 0.125290 -12.815412
											CHANNELS 3 Xrotation Yrotation Zrotation
											JOINT RightHandPinky2
											{
												OFFSET -8.425102 0.000000 0.000000
												CHANNELS 3 Xrotation Yrotation Zrotation
												JOINT RightHandPinky3
												{
													OFFSET -8.147003 0.000000 0.000000
													CHANNELS 3 Xrotation Yrotation Zrotation
													End Site
													{
														OFFSET 0.000000 0.000000 0.000000
													}
												}
											}
										}
									}
								}
							}
						}
					}
				}
			}
		}
	}
	JOINT LeftUpLeg
	{
		OFFSET 11.394100 -6.187798 -0.413800
		CHANNELS 3 Xrotation Yrotation Zrotation
		JOINT LeftLeg
		{
			OFFSET 0.430247 -32.302673 3.732800
			CHANNELS 3 Xrotation Yrotation Zrotation
			JOINT LeftFoot
			{
				OFFSET -0.430247 -48.264931 -6.423300
				CHANNELS 3 Xrotation Yrotation Zrotation
				JOINT LeftToeBase
				{
					OFFSET 4.230900 -16.068199 23.438400
					CHANNELS 3 Xrotation Yrotation Zrotation
					JOINT LeftToe_End
					{
						OFFSET 4.510700 0.695400 19.974600
						CHANNELS 3 Xrotation Yrotation Zrotation
						End Site
						{
							OFFSET 0.000000 0.000000 0.000000
						}
					}
				}
			}
		}
	}
	JOINT RightUpLeg
	{
		OFFSET -11.333700 -6.187798 -0.413800
		CHANNELS 3 Xrotation Yrotation Zrotation
		JOINT RightLeg
		{
			OFFSET -0.430392 -32.302628 3.733000
			CHANNELS 3 Xrotation Yrotation Zrotation
			JOINT RightFoot
			{
				OFFSET 0.430392 -48.264973 -6.423500
				CHANNELS 3 Xrotation Yrotation Zrotation
				JOINT RightToeBase
				{
					OFFSET -4.230900 -16.068199 23.438400
					CHANNELS 3 Xrotation Yrotation Zrotation
					JOINT RightToe_End
					{
						OFFSET -4.510700 0.695400 19.974600
						CHANNELS 3 Xrotation Yrotation Zrotation
						End Site
						{
							OFFSET 0.000000 0.000000 0.000000
						}
					}
				}
			}
		}
	}
}
MOTION
Frames: 6
Frame Time: 0.016667
-0.188532 94.284843 0.075370 -6.091883 -43.084154 -4.028575 5.833544 4.695672 -1.240788 11.836537 9.038708 -3.084348 0.000000 0.000000 0.000000 11.836537 9.038689 -3.084346 -4.303014 -1.272906 0.206303 -6.271936 20.437792 -0.377162 -0.000001 0.000000 -0.000000 1.392497 -0.696017 -7.877854 0.000000 0.000000 0.000000 -14.260089 2.394333 -63.277106 9.865057 -47.524910 5.927908 16.172845 0.915143 18.795434 9.143015 4.783931 -5.500138 -0.301070 0.107980 0.795304 0.000001 0.000005 0.000005 0.000003 0.000002 -0.000001 -0.902022 -6.980959 -3.808314 0.026630 0.799120 -16.417999 -0.000000 -0.000001 0.000000 1.947877 9.683099 -14.539680 -0.466566 -1.573699 -21.879816 -0.000004 -0.000000 -0.000000 2.605917 14.896844 -31.345183 -0.561672 -2.697438 -32.012079 0.000002 0.000001 0.000000 4.170637 18.495036 -34.987275 -0.700304 -5.780886 -39.372499 -0.000004 -0.000001 -0.000002 1.410963 9.461533 9.792730 0.000000 0.000000 0.000000 1.220052 -24.270719 60.532900 -6.660698 41.858415 8.043847 6.225240 12.322314 11.673331 -8.895706 -4.903272 -0.383686 7.904861 -19.192212 -2.856772 0.000009 -0.000012 0.000006 -0.000000 -0.000000 -0.000001 -1.085547 -1.215408 4.525426 0.128077 -1.119900 16.942409 0.000001 0.000000 -0.000001 -0.665779 -2.894579 12.730864 -0.670880 1.818957 30.578286 0.000001 -0.000003 0.000002 2.420448 -7.405561 21.762823 -0.974637 3.771135 37.430376 0.000000 -0.000001 -0.000001 3.480943 -10.055015 24.322546 -1.465923 7.881262 41.092088 -0.000001 -0.000001 -0.000003 -30.528200 4.939454 14.030001 33.600597 -13.723013 -0.142483 -0.499452 0.502649 -8.886868 -2.319082 -3.216987 0.802954 -0.000000 0.000002 0.000000 -6.240850 -12.866858 -16.842345 32.320940 -9.244054 -0.477171 -18.022383 -3.759903 17.730430 -1.784972 -0.356707 0.333185 -0.000000 0.000001 0.000000 
0.056207 94.360016 -0.185333 -6.186405 -43.217148 -4.090133 5.866619 4.680332 -1.255561 11.898884 9.008183 -3.077232 0.000000 0.000000 0.000000 11.898875 9.008203 -3.077237 -4.429656 -1.267880 0.288872 -6.490516 20.388219 -0.421787 -0.000000 0.000000 -0.000000 1.401863 -0.822655 -7.787731 0.000000 0.000000 0.000000 -14.062057 2.347399 -63.133556 10.053591 -47.618136 5.985815 16.200690 0.994753 19.383010 9.158604 4.725363 -5.454726 0.188499 0.417729 0.798311 0.000001 0.000008 0.000006 -0.000001 0.000003 -0.000000 -0.958187 -6.941315 -4.413360 0.024142 0.791030 -16.487798 -0.000005 0.000002 0.000000 2.036507 9.671551 -15.139980 -0.465808 -1.571755 -21.854493 -0.000001 -0.000001 0.000000 2.574087 14.834110 -31.340159 -0.563092 -2.699683 -32.043218 0.000001 -0.000001 -0.000001 4.238374 18.498948 -35.334126 -0.697794 -5.785140 -39.451330 -0.000001 -0.000002 -0.000002 1.466865 9.326471 9.780288 0.000000 0.000000 0.000000 0.638246 -23.863781 60.130725 -6.816773 41.825401 8.076355 6.034872 12.620478 11.250476 -8.972871 -4.851966 -0.420213 8.125494 -18.985139 -2.690108 0.000007 -0.000011 0.000009 0.000001 -0.000000 -0.000000 -1.120325 -1.139228 4.966061 0.131788 -1.131926 16.816863 0.000000 -0.000000 -0.000000 -0.659741 -2.887937 12.813763 -0.667700 1.813545 30.476857 0.000001 -0.000002 -0.000001 2.379475 -7.285909 22.042065 -0.967370 3.761637 37.319358 -0.000000 -0.000001 0.000001 3.532380 -10.190433 24.333013 -1.452841 7.866220 40.832039 -0.000001 -0.000001 -0.000001 -30.375859 4.994513 14.116464 33.056125 -13.436708 -0.296647 -0.078402 0.237839 -8.900938 -2.292897 -3.085554 0.700941 -0.000000 0.000001 -0.000000 -6.700067 -13.070377 -16.954145 32.584186 -8.665189 -0.490806 -17.840562 -3.695113 17.474916 -1.666814 -0.372999 0.324841 -0.000000 0.000001 0.000000 
0.318369 94.480171 -0.543511 -6.199094 -43.369884 -4.140913 5.910706 4.658368 -1.268492 11.981814 8.966222 -3.057288 0.000000 0.000000 0.000000 11.981820 8.966199 -3.057284 -4.631370 -1.213644 0.393662 -6.738247 20.342059 -0.503909 0.000001 -0.000000 -0.000001 1.424247 -0.917261 -7.638833 0.000000 0.000000 0.000000 -13.828635 2.336943 -63.082958 10.239115 -47.620789 6.058581 16.425413 0.929067 20.144062 9.173012 4.617628 -5.382494 1.007823 0.982166 0.784582 0.000003 0.000006 0.000007 -0.000002 0.000002 -0.000000 -1.080099 -6.902726 -5.464028 0.021384 0.782108 -16.564486 0.000000 0.000002 -0.000002 2.179167 9.621903 -16.188814 -0.471069 -1.570365 -21.850171 -0.000005 -0.000000 -0.000001 2.576050 14.731926 -31.569732 -0.560854 -2.704474 -32.093843 -0.000001 -0.000001 -0.000001 4.353769 18.523978 -35.859914 -0.692972 -5.791241 -39.531086 -0.000005 -0.000001 -0.000000 1.548608 9.197633 9.728929 0.000000 0.000000 0.000000 -0.123835 -23.268387 59.659954 -6.921679 41.713410 8.099059 5.976510 12.974409 10.588729 -9.096284 -4.769448 -0.477919 8.264821 -18.775744 -2.508985 0.000009 -0.000012 0.000009 -0.000000 -0.000000 -0.000002 -1.151624 -1.039403 5.376209 0.137451 -1.150281 16.624539 0.000001 0.000001 -0.000000 -0.653064 -2.883163 12.864818 -0.661490 1.799802 30.309125 0.000001 -0.000001 -0.000001 2.335060 -7.175468 22.316854 -0.956285 3.749341 37.136640 -0.000001 0.000002 -0.000001 3.606865 -10.405699 24.310084 -1.436092 7.850940 40.538037 -0.000001 -0.000000 -0.000003 -30.203981 5.070101 14.296509 32.260199 -13.031424 -0.486900 0.499431 -0.153322 -8.942090 -2.202423 -2.954518 0.600550 -0.000000 0.000004 0.000000 -7.302902 -13.363335 -16.950453 32.834861 -8.036672 -0.565041 -17.588932 -3.574963 17.122229 -1.552917 -0.401282 0.295867 -0.000000 -0.000001 -0.000000 
0.616404 94.735382 -1.135773 -6.086839 -43.556997 -4.200945 5.992409 4.617259 -1.268697 12.136444 8.890868 -2.994822 0.000000 0.000000 0.000000 12.136439 8.890862 -2.994818 -4.947634 -1.039910 0.521744 -7.184481 20.285947 -0.667902 -0.000000 0.000000 -0.000000 1.480753 -0.968468 -7.357331 0.000000 0.000000 0.000000 -13.473019 2.397443 -63.225224 10.444996 -47.365156 6.152052 17.082003 0.460961 21.365417 9.194225 4.397443 -5.240285 2.808061 2.235783 0.718582 0.000002 0.000007 0.000004 -0.000002 0.000003 -0.000001 -1.409022 -6.869437 -7.861242 0.012212 0.773627 -16.652693 0.000002 0.000003 -0.000004 2.493114 9.474523 -18.639094 -0.485906 -1.571243 -21.897091 0.000000 0.000000 -0.000001 2.669358 14.511118 -32.472475 -0.555821 -2.714348 -32.197198 0.000003 0.000001 0.000000 4.607233 18.590197 -36.929412 -0.682539 -5.802184 -39.617443 -0.000008 -0.000002 -0.000001 1.699781 9.063899 9.572955 0.000000 0.000000 0.000000 -1.390749 -22.194256 59.019426 -6.909179 41.325363 8.080221 6.289875 13.518282 9.316056 -9.337840 -4.606793 -0.590529 8.194684 -18.557870 -2.290260 0.000007 -0.000011 0.000009 -0.000001 0.000000 -0.000001 -1.167076 -0.886024 5.671156 0.148036 -1.184229 16.268834 -0.000000 -0.000000 -0.000000 -0.639254 -2.885168 12.772661 -0.654317 1.769139 29.971416 -0.000000 0.000000 0.000003 2.289829 -7.091435 22.555965 -0.934111 3.724402 36.768691 -0.000000 0.000000 0.000002 3.751374 -10.858929 24.169890 -1.411331 7.835655 40.176334 -0.000001 0.000002 0.000001 -29.857175 5.220322 14.718767 30.740960 -12.359711 -0.768696 1.477843 -0.885182 -9.095658 -1.928937 -2.828020 0.523079 -0.000000 -0.000001 -0.000000 -8.060768 -13.956598 -16.655847 32.846817 -7.212644 -0.822773 -17.139055 -3.377412 16.553503 -1.171494 -0.460746 0.219699 -0.000000 -0.000002 -0.000000 
0.964167 95.043938 -1.937614 -5.649923 -43.816674 -4.161089 6.075352 4.562686 -1.275466 12.291220 8.793639 -2.923257 0.000000 0.000000 0.000000 12.291218 8.793647 -2.923258 -5.600543 -0.771453 0.762562 -7.478253 20.278625 -0.915326 0.000001 0.000000 0.000000 1.559700 -0.881998 -6.930224 0.000000 0.000000 0.000000 -13.113715 2.571166 -63.632276 10.587737 -46.992139 6.307652 18.251049 -0.217693 22.883101 9.221861 4.098817 -5.047226 4.936147 3.790679 0.608182 0.000002 0.000005 0.000008 0.000001 0.000002 0.000002 -1.780754 -6.833677 -10.684270 -0.000515 0.762981 -16.766448 -0.000001 -0.000002 0.000002 2.824425 9.261557 -21.423033 -0.507538 -1.574437 -21.988556 -0.000000 -0.000001 0.000000 2.812545 14.253214 -33.670893 -0.548557 -2.727401 -32.332012 0.000003 -0.000001 -0.000002 4.915119 18.723659 -38.162220 -0.667840 -5.816476 -39.697408 -0.000001 -0.000001 -0.000001 1.892365 8.982953 9.354386 0.000000 0.000000 0.000000 -2.904476 -20.756047 58.240162 -6.773794 40.936889 8.076138 6.780245 14.067168 7.590588 -9.665197 -4.384788 -0.740923 7.973742 -18.341681 -2.042613 0.000008 -0.000012 0.000009 -0.000000 -0.000000 0.000001 -1.190308 -0.674814 5.982602 0.162938 -1.231653 15.771807 -0.000000 -0.000001 0.000000 -0.641229 -2.859167 12.741639 -0.645291 1.726920 29.508920 0.000001 -0.000001 0.000004 2.242612 -7.012312 22.837803 -0.904831 3.692148 36.270429 0.000001 -0.000001 0.000001 3.919564 -11.395231 24.033706 -1.378301 7.816898 39.712632 -0.000002 0.000001 -0.000004 -29.638629 5.385913 15.317232 28.778743 -11.416922 -1.047980 2.780812 -1.820266 -9.329191 -1.570858 -2.683649 0.438498 -0.000000 0.000000 -0.000000 -9.230003 -14.678234 -16.128961 32.875592 -6.336931 -1.128757 -16.554370 -3.088737 15.803743 -1.246396 -0.549743 -0.000084 -0.000000 0.000002 0.000000 
1.395390 95.395218 -2.978828 -4.559623 -44.231646 -3.886448 6.102850 4.494067 -1.293853 12.332944 8.678595 -2.848844 0.000000 0.000000 0.000000 12.332941 8.678612 -2.848848 -6.795470 -0.399419 1.224733 -7.271868 20.410606 -1.315203 0.000000 0.000000 -0.000000 1.659996 -0.514998 -6.295148 0.000000 0.000000 0.000000 -12.731929 2.928547 -64.430377 10.680264 -46.602773 6.557328 20.104718 -0.938282 24.725486 9.257655 3.730488 -4.807448 6.943336 5.449070 0.447174 0.000002 0.000004 0.000006 -0.000001 -0.000001 -0.000001 -2.098110 -6.800048 -13.349354 -0.016471 0.747805 -16.923906 0.000003 -0.000002 0.000001 3.046306 8.959191 -23.765027 -0.534648 -1.580642 -22.130523 0.000003 -0.000000 0.000000 2.991245 14.007973 -34.979823 -0.539192 -2.743313 -32.494987 -0.000001 0.000000 -0.000001 5.251624 18.992249 -39.310730 -0.646216 -5.831536 -39.753784 0.000003 -0.000004 0.000002 2.116162 8.986444 9.100669 0.000000 0.000000 0.000000 -4.552758 -18.826307 57.257404 -6.409748 40.529485 8.147681 7.264775 14.553929 5.385436 -10.071586 -4.106688 -0.924753 7.602649 -18.206556 -1.760026 0.000010 -0.000011 0.000005 -0.000001 -0.000000 0.000001 -1.242960 -0.382791 6.409499 0.183048 -1.294734 15.109452 -0.000000 -0.000001 -0.000000 -0.689465 -2.753689 12.976886 -0.634441 1.673702 28.925479 0.000000 0.000001 -0.000001 2.188843 -6.910837 23.272603 -0.869338 3.652065 35.657590 0.000001 0.000000 0.000003 4.085866 -11.936077 23.983427 -1.337816 7.790938 39.117187 -0.000001 -0.000000 -0.000004 -29.812000 5.494898 16.141216 26.359971 -10.067718 -1.272694 4.500290 -2.911934 -9.670661 -1.182785 -2.496294 0.320667 -0.000000 -0.000002 0.000000 -11.097927 -15.489421 -15.325396 32.940667 -5.687153 -1.461467 -15.658397 -2.677862 14.968167 -1.701133 -0.681058 -0.000202 -0.000000 0.000001 0.000000 
